# xmcd CD database file
#
# Track frame offsets:
#	150
#	29691
#	66704
#	98439
#	118150
#	150101
#	173112
#
# Disc length: 2718 seconds
#
# Revision: 0
# Processed by: cddbd v1.5.2PL0 Copyright (c) Steve Scherf et al.
# Submitted via: CDex 1.51
#
DISCID=550a9c07
DTITLE=Hal Merril - Recipes From Another World
DYEAR=2000
DGENRE=Jazz
TTITLE0=For Martin
TTITLE1=Transcending the Illusion
TTITLE2=Kay C.
TTITLE3=Giant Steps
TTITLE4=Time Will Tell
TTITLE5=E.S.P.
TTITLE6=Origen
EXTD=YEAR: 2000
EXTT0=
EXTT1=
EXTT2=
EXTT3=
EXTT4=
EXTT5=
EXTT6=
PLAYORDER=
